<svg version="1.1" viewBox="15.2 72.8 451.21 313.57" fill="none" stroke="none" stroke-linecap="square" stroke-miterlimit="10" xmlns:xlink="http://www.w3.org/1999/xlink" xmlns="http://www.w3.org/2000/svg"><clipPath id="g3cbbc2d3d17_0_17.0"><path d="m0 0l480.0 0l0 480.0l-480.0 0l0 -480.0z" clip-rule="nonzero"/></clipPath><g clip-path="url(#g3cbbc2d3d17_0_17.0)"><path fill="#f5ebeb" d="m0 0l480.0 0l0 480.0l-480.0 0z" fill-rule="evenodd"/><path fill="#000000" fill-opacity="0.0" d="m19.2 76.8l443.2126 0l0 305.57483l-443.2126 0z" fill-rule="evenodd"/><path stroke="#5b0f00" stroke-width="4.800524934383202" stroke-linejoin="round" stroke-linecap="butt" d="m19.2 76.8l443.2126 0l0 305.57483l-443.2126 0z" fill-rule="evenodd"/><path fill="#000000" fill-opacity="0.0" d="m30.005249 90.91855l422.01575 0l0 274.04724l-422.01575 0z" fill-rule="evenodd"/><path stroke="#5b0f00" stroke-width="1.5984251968503937" stroke-linejoin="round" stroke-linecap="butt" d="m30.005249 90.91855l422.01575 0l0 274.04724l-422.01575 0z" fill-rule="evenodd"/><path fill="#000000" fill-opacity="0.0" d="m42.537323 111.36924l394.92914 0l0 164.69293l-394.92914 0z" fill-rule="evenodd"/><path fill="#5b0f00" d="m105.99286 238.24924l0 -91.640625l35.828125 0q7.9375 0 14.265625 3.265625q6.34375 3.25 10.046875 8.625q3.71875 5.375 3.71875 12.03125q0 7.171875 -3.515625 12.171875q-3.515625 4.984375 -8.765625 7.546875l0 1.03125q7.03125 2.421875 11.3125 8.0q4.296875 5.5625 4.296875 13.5q0 7.8125 -4.03125 13.515625q-4.03125 5.6875 -10.875 8.828125q-6.84375 3.125 -15.171875 3.125l-37.109375 0zm9.59375 -39.421875l0 -14.84375l24.953125 0q3.96875 0 6.71875 -1.46875q2.765625 -1.484375 4.234375 -4.046875q1.46875 -2.5625 1.46875 -5.5q0 -3.078125 -1.40625 -5.5q-1.40625 -2.4375 -4.09375 -3.90625q-2.6875 -1.46875 -6.40625 -1.46875l-17.796875 0l0 60.40625l19.203125 0q4.359375 0 7.296875 -1.53125q2.953125 -1.53125 4.484375 -4.21875q1.53125 -2.6875 1.53125 -6.015625q0 -3.453125 -1.53125 -6.140625q-1.53125 -2.703125 -4.609375 -4.234375q-3.078125 -1.53125 -7.671875 -1.53125l-26.375 0zm115.844894 41.46875q-10.125 0 -18.890625 -3.640625q-8.765625 -3.65625 -15.296875 -10.171875q-6.515625 -6.53125 -10.171875 -15.234375q-3.640625 -8.71875 -3.640625 -18.828125q0 -10.109375 3.640625 -18.8125q3.65625 -8.703125 10.171875 -15.234375q6.53125 -6.53125 15.296875 -10.171875q8.765625 -3.65625 18.890625 -3.65625q7.296875 0 13.4375 1.734375q6.140625 1.734375 11.32811 5.0625q5.1875 3.328125 9.53125 8.1875l-12.156235 11.78125q-2.6875 -3.203125 -5.953125 -5.5q-3.265625 -2.3125 -7.234375 -3.59375q-3.96875 -1.28125 -8.828125 -1.28125q-8.578125 0 -15.5625 3.90625q-6.96875 3.90625 -11.0625 10.953125q-4.09375 7.03125 -4.09375 16.625q0 9.46875 4.09375 16.578125q4.09375 7.109375 11.0625 11.015625q6.984375 3.890625 15.5625 3.890625q7.671875 0 13.625 -3.1875q5.953125 -3.203125 10.5625 -8.84375l12.29686 11.65625q-4.484375 5.375 -10.125 9.15625q-5.6249847 3.765625 -12.281235 5.6875q-6.65625 1.921875 -14.203125 1.921875zm51.969376 -2.046875l0 -91.640625l58.109406 0l0 16.375l-40.84375 0l0 58.875l40.84375 0l0 16.390625l-58.109406 0zm9.59375 -37.625l0 -16.390625l44.421906 0l0 16.390625l-44.421906 0zm73.21115 38.390625q-4.609375 0 -7.875 -3.265625q-3.25 -3.265625 -3.25 -7.875q0 -4.59375 3.25 -7.796875q3.265625 -3.203125 7.875 -3.203125q4.609375 0 7.875 3.203125q3.265625 3.203125 3.265625 7.796875q0 4.609375 -3.265625 7.875q-3.265625 3.265625 -7.875 3.265625z" fill-rule="nonzero"/><path fill="#000000" fill-opacity="0.0" d="m55.50362 252.88567l370.58267 0l0 68.377945l-370.58267 0z" fill-rule="evenodd"/><path fill="#5b0f00" d="m124.148125 305.13226l-12.984375 -36.734375l7.5 0l7.578125 22.171875l1.34375 4.65625l0.40625 0l1.4374924 -4.65625l7.90625 -22.171875l7.484375 0l-13.390625 36.734375l-7.2812424 0zm25.595955 0l0 -36.734375l23.28125 0l0 6.578125l-16.359375 0l0 23.59375l16.359375 0l0 6.5625l-23.28125 0zm3.84375 -15.078125l0 -6.5625l17.796875 0l0 6.5625l-17.796875 0zm26.216263 15.078125l0 -36.734375l8.046875 0l14.78125 24.625l0.40625 0l-0.40625 -7.078125l0 -17.546875l6.875 0l0 36.734375l-7.28125 0l-15.59375 -26.0l-0.421875 0l0.421875 7.078125l0 18.921875l-6.828125 0zm45.245407 0l0 -33.234375l6.921875 0l0 33.234375l-6.921875 0zm-10.265625 -30.15625l0 -6.578125l27.453125 0l0 6.578125l-27.453125 0zm46.529053 30.984375q-4.3125 0 -7.515625 -1.84375q-3.203125 -1.859375 -4.984375 -5.3125q-1.765625 -3.46875 -1.765625 -8.296875l0 -22.109375l6.875 0l0 22.53125q0 2.40625 0.8125 4.328125q0.828125 1.921875 2.5 3.03125q1.671875 1.09375 4.078125 1.09375q2.46875 0 4.109375 -1.09375q1.640625 -1.109375 2.453125 -3.03125q0.828125 -1.921875 0.828125 -4.328125l0 -22.53125l6.875 0l0 22.109375q0 4.578125 -1.75 8.0625q-1.75 3.484375 -4.9375 5.4375q-3.171875 1.953125 -7.578125 1.953125zm22.110992 -0.828125l0 -36.734375l13.390625 0q3.6875 0 6.421875 1.5q2.75 1.484375 4.28125 4.109375q1.546875 2.609375 1.546875 5.984375q0 2.515625 -1.046875 4.59375q-1.046875 2.078125 -2.875 3.59375q-1.8125 1.515625 -4.25 2.34375q-2.4375 0.8125 -5.203125 0.8125l-8.421875 0l0 -6.359375l9.5 0q1.578125 0 2.75 -0.671875q1.1875 -0.671875 1.875 -1.8125q0.703125 -1.15625 0.703125 -2.59375q0 -1.34375 -0.59375 -2.484375q-0.59375 -1.15625 -1.78125 -1.875q-1.171875 -0.71875 -2.859375 -0.71875l-6.515625 0l0 30.3125l-6.921875 0zm8.109375 -16.671875l8.09375 0l11.390625 16.265625l0 0.40625l-7.953125 0l-11.53125 -16.671875zm24.669373 16.671875l0 -36.734375l23.28125 0l0 6.578125l-16.359375 0l0 23.59375l16.359375 0l0 6.5625l-23.28125 0zm3.84375 -15.078125l0 -6.5625l17.796875 0l0 6.5625l-17.796875 0zm36.524933 15.90625q-3.125 0 -5.875 -1.171875q-2.734375 -1.1875 -4.765625 -3.515625q-2.03125 -2.34375 -3.0625 -5.734375l6.515625 -2.5625q0.71875 2.71875 2.515625 4.5625q1.796875 1.84375 4.71875 1.84375q1.4375 0 2.71875 -0.484375q1.28125 -0.484375 2.078125 -1.453125q0.796875 -0.984375 0.796875 -2.421875q0 -1.375 -0.671875 -2.375q-0.65625 -1.0 -2.21875 -1.890625q-1.5625 -0.90625 -4.234375 -1.890625l-2.265625 -0.8125q-1.484375 -0.5625 -3.0 -1.40625q-1.515625 -0.859375 -2.765625 -2.109375q-1.25 -1.265625 -2.03125 -2.90625q-0.765625 -1.640625 -0.765625 -3.734375q0 -2.875 1.484375 -5.203125q1.5 -2.34375 4.15625 -3.71875q2.671875 -1.390625 6.21875 -1.390625q3.6875 0 6.09375 1.265625q2.40625 1.25 3.765625 3.046875q1.359375 1.796875 1.9375 3.484375l-6.109375 2.5625q-0.3125 -1.03125 -1.03125 -1.953125q-0.71875 -0.921875 -1.84375 -1.484375q-1.125 -0.5625 -2.71875 -0.5625q-1.484375 0 -2.671875 0.484375q-1.171875 0.484375 -1.84375 1.34375q-0.671875 0.84375 -0.671875 1.96875q0 1.640625 1.40625 2.828125q1.421875 1.171875 4.546875 2.203125l2.3125 0.765625q1.953125 0.671875 3.71875 1.5625q1.765625 0.890625 3.15625 2.234375q1.390625 1.328125 2.171875 3.1875q0.796875 1.84375 0.796875 4.40625q0 2.8125 -1.125 4.921875q-1.125 2.09375 -2.96875 3.4375q-1.84375 1.328125 -4.078125 2.0q-2.234375 0.671875 -4.390625 0.671875z" fill-rule="nonzero"/></g></svg>